<mxfile host="app.diagrams.net" agent="Mozilla/5.0 (Windows NT 10.0; Win64; x64) AppleWebKit/537.36 (KHTML, like Gecko) Chrome/137.0.0.0 Safari/537.36" version="27.2.0">
  <diagram name="Page-1" id="du7D3OjFLyRKkL5nQl_-">
    <mxGraphModel dx="5210" dy="2675" grid="1" gridSize="10" guides="1" tooltips="1" connect="1" arrows="1" fold="1" page="1" pageScale="1" pageWidth="850" pageHeight="1100" math="0" shadow="0">
      <root>
        <mxCell id="0" />
        <mxCell id="1" parent="0" />
        <mxCell id="BFCC4vCmTjrf80Ui5FIp-1" value="" style="swimlane;html=1;startSize=20;fontStyle=0;collapsible=0;horizontal=0;swimlaneLine=1;swimlaneFillColor=#ffffff;strokeWidth=2;whiteSpace=wrap;" parent="1" vertex="1">
          <mxGeometry x="90" y="120" width="1910" height="510" as="geometry" />
        </mxCell>
        <mxCell id="BFCC4vCmTjrf80Ui5FIp-2" value="" style="swimlane;html=1;startSize=20;fontStyle=0;collapsible=0;horizontal=0;swimlaneLine=1;swimlaneFillColor=#ffffff;strokeWidth=2;whiteSpace=wrap;" parent="BFCC4vCmTjrf80Ui5FIp-1" vertex="1">
          <mxGeometry x="20" width="1890" height="135" as="geometry" />
        </mxCell>
        <mxCell id="BFCC4vCmTjrf80Ui5FIp-8" value="Клиент" style="text;html=1;strokeColor=none;fillColor=none;align=center;verticalAlign=middle;whiteSpace=wrap;rounded=0;rotation=-90;" parent="BFCC4vCmTjrf80Ui5FIp-2" vertex="1">
          <mxGeometry x="-30" y="50" width="80" height="30" as="geometry" />
        </mxCell>
        <mxCell id="BFCC4vCmTjrf80Ui5FIp-9" value="" style="points=[[0.145,0.145,0],[0.5,0,0],[0.855,0.145,0],[1,0.5,0],[0.855,0.855,0],[0.5,1,0],[0.145,0.855,0],[0,0.5,0]];shape=mxgraph.bpmn.event;html=1;verticalLabelPosition=bottom;labelBackgroundColor=#ffffff;verticalAlign=top;align=center;perimeter=ellipsePerimeter;outlineConnect=0;aspect=fixed;outline=standard;symbol=general;" parent="BFCC4vCmTjrf80Ui5FIp-2" vertex="1">
          <mxGeometry x="60" y="45" width="40" height="40" as="geometry" />
        </mxCell>
        <mxCell id="BFCC4vCmTjrf80Ui5FIp-11" value="" style="edgeStyle=elbowEdgeStyle;fontSize=12;html=1;endArrow=blockThin;endFill=1;rounded=0;exitX=1;exitY=0.5;exitDx=0;exitDy=0;exitPerimeter=0;entryX=0;entryY=0.5;entryDx=0;entryDy=0;entryPerimeter=0;" parent="BFCC4vCmTjrf80Ui5FIp-2" source="BFCC4vCmTjrf80Ui5FIp-9" target="BFCC4vCmTjrf80Ui5FIp-17" edge="1">
          <mxGeometry width="160" relative="1" as="geometry">
            <mxPoint x="200" y="180" as="sourcePoint" />
            <mxPoint x="130" y="65" as="targetPoint" />
          </mxGeometry>
        </mxCell>
        <mxCell id="BFCC4vCmTjrf80Ui5FIp-17" value="" style="points=[[0.25,0,0],[0.5,0,0],[0.75,0,0],[1,0.25,0],[1,0.5,0],[1,0.75,0],[0.75,1,0],[0.5,1,0],[0.25,1,0],[0,0.75,0],[0,0.5,0],[0,0.25,0]];shape=mxgraph.bpmn.task2;whiteSpace=wrap;rectStyle=rounded;size=10;html=1;container=1;expand=0;collapsible=0;taskMarker=user;" parent="BFCC4vCmTjrf80Ui5FIp-2" vertex="1">
          <mxGeometry x="150" y="25" width="120" height="80" as="geometry" />
        </mxCell>
        <mxCell id="BFCC4vCmTjrf80Ui5FIp-20" value="Выбор товаров" style="text;html=1;align=center;verticalAlign=middle;whiteSpace=wrap;rounded=0;" parent="BFCC4vCmTjrf80Ui5FIp-17" vertex="1">
          <mxGeometry x="30" y="25" width="60" height="30" as="geometry" />
        </mxCell>
        <mxCell id="BFCC4vCmTjrf80Ui5FIp-18" value="" style="points=[[0.25,0,0],[0.5,0,0],[0.75,0,0],[1,0.25,0],[1,0.5,0],[1,0.75,0],[0.75,1,0],[0.5,1,0],[0.25,1,0],[0,0.75,0],[0,0.5,0],[0,0.25,0]];shape=mxgraph.bpmn.task2;whiteSpace=wrap;rectStyle=rounded;size=10;html=1;container=1;expand=0;collapsible=0;taskMarker=user;" parent="BFCC4vCmTjrf80Ui5FIp-2" vertex="1">
          <mxGeometry x="290" y="25" width="120" height="80" as="geometry" />
        </mxCell>
        <mxCell id="BFCC4vCmTjrf80Ui5FIp-21" value="Добавление товаров в корзину" style="text;html=1;align=center;verticalAlign=middle;whiteSpace=wrap;rounded=0;" parent="BFCC4vCmTjrf80Ui5FIp-18" vertex="1">
          <mxGeometry x="10" y="25" width="100" height="30" as="geometry" />
        </mxCell>
        <mxCell id="BFCC4vCmTjrf80Ui5FIp-19" value="" style="edgeStyle=elbowEdgeStyle;fontSize=12;html=1;endArrow=blockThin;endFill=1;rounded=0;exitX=1;exitY=0.5;exitDx=0;exitDy=0;exitPerimeter=0;entryX=0;entryY=0.5;entryDx=0;entryDy=0;entryPerimeter=0;" parent="BFCC4vCmTjrf80Ui5FIp-2" source="BFCC4vCmTjrf80Ui5FIp-17" target="BFCC4vCmTjrf80Ui5FIp-18" edge="1">
          <mxGeometry width="160" relative="1" as="geometry">
            <mxPoint x="200" y="180" as="sourcePoint" />
            <mxPoint x="360" y="180" as="targetPoint" />
          </mxGeometry>
        </mxCell>
        <mxCell id="BFCC4vCmTjrf80Ui5FIp-37" value="" style="points=[[0.25,0,0],[0.5,0,0],[0.75,0,0],[1,0.25,0],[1,0.5,0],[1,0.75,0],[0.75,1,0],[0.5,1,0],[0.25,1,0],[0,0.75,0],[0,0.5,0],[0,0.25,0]];shape=mxgraph.bpmn.task2;whiteSpace=wrap;rectStyle=rounded;size=10;html=1;container=1;expand=0;collapsible=0;taskMarker=abstract;isLoopStandard=1;isLoopSub=1;" parent="BFCC4vCmTjrf80Ui5FIp-2" vertex="1">
          <mxGeometry x="560" y="20" width="120" height="80" as="geometry" />
        </mxCell>
        <mxCell id="BFCC4vCmTjrf80Ui5FIp-39" value="Оплата товара" style="text;html=1;align=center;verticalAlign=middle;whiteSpace=wrap;rounded=0;" parent="BFCC4vCmTjrf80Ui5FIp-37" vertex="1">
          <mxGeometry x="30" y="20" width="60" height="30" as="geometry" />
        </mxCell>
        <mxCell id="BFCC4vCmTjrf80Ui5FIp-40" value="" style="points=[[0.145,0.145,0],[0.5,0,0],[0.855,0.145,0],[1,0.5,0],[0.855,0.855,0],[0.5,1,0],[0.145,0.855,0],[0,0.5,0]];shape=mxgraph.bpmn.event;html=1;verticalLabelPosition=bottom;labelBackgroundColor=#ffffff;verticalAlign=top;align=center;perimeter=ellipsePerimeter;outlineConnect=0;aspect=fixed;outline=boundInt;symbol=error;" parent="BFCC4vCmTjrf80Ui5FIp-37" vertex="1">
          <mxGeometry x="10" y="65" width="30" height="30" as="geometry" />
        </mxCell>
        <mxCell id="BFCC4vCmTjrf80Ui5FIp-41" value="&lt;font style=&quot;font-size: 8px;&quot;&gt;После 3-х попыток оплата неуспешна&lt;/font&gt;" style="text;html=1;align=center;verticalAlign=middle;whiteSpace=wrap;rounded=0;" parent="BFCC4vCmTjrf80Ui5FIp-2" vertex="1">
          <mxGeometry x="540" y="105" width="160" height="30" as="geometry" />
        </mxCell>
        <mxCell id="EEEpXijgqQLI1RlhWJlx-42" value="" style="points=[[0.25,0,0],[0.5,0,0],[0.75,0,0],[1,0.25,0],[1,0.5,0],[1,0.75,0],[0.75,1,0],[0.5,1,0],[0.25,1,0],[0,0.75,0],[0,0.5,0],[0,0.25,0]];shape=mxgraph.bpmn.task2;whiteSpace=wrap;rectStyle=rounded;size=10;html=1;container=1;expand=0;collapsible=0;taskMarker=abstract;" vertex="1" parent="BFCC4vCmTjrf80Ui5FIp-2">
          <mxGeometry x="1740" y="20" width="120" height="80" as="geometry" />
        </mxCell>
        <mxCell id="BFCC4vCmTjrf80Ui5FIp-3" value="" style="swimlane;html=1;startSize=20;fontStyle=0;collapsible=0;horizontal=0;swimlaneLine=1;swimlaneFillColor=#ffffff;strokeWidth=2;whiteSpace=wrap;" parent="BFCC4vCmTjrf80Ui5FIp-1" vertex="1">
          <mxGeometry x="20" y="130" width="1890" height="190" as="geometry" />
        </mxCell>
        <mxCell id="BFCC4vCmTjrf80Ui5FIp-25" value="" style="points=[[0.25,0,0],[0.5,0,0],[0.75,0,0],[1,0.25,0],[1,0.5,0],[1,0.75,0],[0.75,1,0],[0.5,1,0],[0.25,1,0],[0,0.75,0],[0,0.5,0],[0,0.25,0]];shape=mxgraph.bpmn.task2;whiteSpace=wrap;rectStyle=rounded;size=10;html=1;container=1;expand=0;collapsible=0;taskMarker=businessRule;" parent="BFCC4vCmTjrf80Ui5FIp-3" vertex="1">
          <mxGeometry x="410" y="25" width="120" height="80" as="geometry" />
        </mxCell>
        <mxCell id="BFCC4vCmTjrf80Ui5FIp-26" value="Определение размера скидки" style="text;html=1;align=center;verticalAlign=middle;whiteSpace=wrap;rounded=0;" parent="BFCC4vCmTjrf80Ui5FIp-25" vertex="1">
          <mxGeometry x="30" y="25" width="60" height="30" as="geometry" />
        </mxCell>
        <mxCell id="BFCC4vCmTjrf80Ui5FIp-44" value="Заказ отменен" style="text;html=1;strokeColor=none;fillColor=none;align=center;verticalAlign=middle;whiteSpace=wrap;rounded=0;" parent="BFCC4vCmTjrf80Ui5FIp-3" vertex="1">
          <mxGeometry x="635" y="75" width="80" height="30" as="geometry" />
        </mxCell>
        <mxCell id="EEEpXijgqQLI1RlhWJlx-2" value="" style="points=[[0.25,0,0],[0.5,0,0],[0.75,0,0],[1,0.25,0],[1,0.5,0],[1,0.75,0],[0.75,1,0],[0.5,1,0],[0.25,1,0],[0,0.75,0],[0,0.5,0],[0,0.25,0]];shape=mxgraph.bpmn.task2;whiteSpace=wrap;rectStyle=rounded;size=10;html=1;container=1;expand=0;collapsible=0;taskMarker=abstract;isLoopMultiParallel=1;" vertex="1" parent="BFCC4vCmTjrf80Ui5FIp-3">
          <mxGeometry x="790" y="25" width="120" height="80" as="geometry" />
        </mxCell>
        <mxCell id="EEEpXijgqQLI1RlhWJlx-3" value="Подготовка товаров к отправке" style="text;html=1;align=center;verticalAlign=middle;whiteSpace=wrap;rounded=0;" vertex="1" parent="EEEpXijgqQLI1RlhWJlx-2">
          <mxGeometry x="30" y="25" width="60" height="30" as="geometry" />
        </mxCell>
        <mxCell id="EEEpXijgqQLI1RlhWJlx-18" value="" style="points=[[0.145,0.145,0],[0.5,0,0],[0.855,0.145,0],[1,0.5,0],[0.855,0.855,0],[0.5,1,0],[0.145,0.855,0],[0,0.5,0]];shape=mxgraph.bpmn.event;html=1;verticalLabelPosition=bottom;labelBackgroundColor=#ffffff;verticalAlign=top;align=center;perimeter=ellipsePerimeter;outlineConnect=0;aspect=fixed;outline=boundNonint;symbol=timer;" vertex="1" parent="EEEpXijgqQLI1RlhWJlx-2">
          <mxGeometry x="10" y="65" width="30" height="30" as="geometry" />
        </mxCell>
        <mxCell id="BFCC4vCmTjrf80Ui5FIp-42" value="" style="points=[[0.145,0.145,0],[0.5,0,0],[0.855,0.145,0],[1,0.5,0],[0.855,0.855,0],[0.5,1,0],[0.145,0.855,0],[0,0.5,0]];shape=mxgraph.bpmn.event;html=1;verticalLabelPosition=bottom;labelBackgroundColor=#ffffff;verticalAlign=top;align=center;perimeter=ellipsePerimeter;outlineConnect=0;aspect=fixed;outline=end;symbol=terminate2;" parent="BFCC4vCmTjrf80Ui5FIp-3" vertex="1">
          <mxGeometry x="655" y="20" width="40" height="40" as="geometry" />
        </mxCell>
        <mxCell id="EEEpXijgqQLI1RlhWJlx-19" value="&lt;font style=&quot;font-size: 8px;&quot;&gt;Каждые 30 минут&lt;/font&gt;" style="text;html=1;strokeColor=none;fillColor=none;align=center;verticalAlign=middle;whiteSpace=wrap;rounded=0;" vertex="1" parent="BFCC4vCmTjrf80Ui5FIp-3">
          <mxGeometry x="810" y="110" width="100" height="30" as="geometry" />
        </mxCell>
        <mxCell id="BFCC4vCmTjrf80Ui5FIp-6" value="Служба магазина" style="text;html=1;strokeColor=none;fillColor=none;align=center;verticalAlign=middle;whiteSpace=wrap;rounded=0;rotation=-90;" parent="BFCC4vCmTjrf80Ui5FIp-3" vertex="1">
          <mxGeometry x="-60" y="70" width="140" height="30" as="geometry" />
        </mxCell>
        <mxCell id="EEEpXijgqQLI1RlhWJlx-24" value="" style="points=[[0.145,0.145,0],[0.5,0,0],[0.855,0.145,0],[1,0.5,0],[0.855,0.855,0],[0.5,1,0],[0.145,0.855,0],[0,0.5,0]];shape=mxgraph.bpmn.event;html=1;verticalLabelPosition=bottom;labelBackgroundColor=#ffffff;verticalAlign=top;align=center;perimeter=ellipsePerimeter;outlineConnect=0;aspect=fixed;outline=throwing;symbol=general;" vertex="1" parent="BFCC4vCmTjrf80Ui5FIp-3">
          <mxGeometry x="1070" y="130" width="40" height="40" as="geometry" />
        </mxCell>
        <mxCell id="EEEpXijgqQLI1RlhWJlx-25" value="Статус: готово Х из Y товаров" style="text;html=1;align=center;verticalAlign=middle;whiteSpace=wrap;rounded=0;" vertex="1" parent="BFCC4vCmTjrf80Ui5FIp-3">
          <mxGeometry x="1040" y="100" width="100" height="30" as="geometry" />
        </mxCell>
        <mxCell id="EEEpXijgqQLI1RlhWJlx-27" value="" style="points=[[0.25,0.25,0],[0.5,0,0],[0.75,0.25,0],[1,0.5,0],[0.75,0.75,0],[0.5,1,0],[0.25,0.75,0],[0,0.5,0]];shape=mxgraph.bpmn.gateway2;html=1;verticalLabelPosition=bottom;labelBackgroundColor=#ffffff;verticalAlign=top;align=center;perimeter=rhombusPerimeter;outlineConnect=0;outline=none;symbol=none;gwType=parallel;" vertex="1" parent="BFCC4vCmTjrf80Ui5FIp-3">
          <mxGeometry x="1160" y="70" width="50" height="50" as="geometry" />
        </mxCell>
        <mxCell id="EEEpXijgqQLI1RlhWJlx-29" value="" style="edgeStyle=elbowEdgeStyle;fontSize=12;html=1;endArrow=blockThin;endFill=1;rounded=0;exitX=1;exitY=0.5;exitDx=0;exitDy=0;exitPerimeter=0;entryX=0.5;entryY=1;entryDx=0;entryDy=0;entryPerimeter=0;" edge="1" parent="BFCC4vCmTjrf80Ui5FIp-3" source="EEEpXijgqQLI1RlhWJlx-24" target="EEEpXijgqQLI1RlhWJlx-27">
          <mxGeometry width="160" relative="1" as="geometry">
            <mxPoint x="1070" y="80" as="sourcePoint" />
            <mxPoint x="1180" y="120" as="targetPoint" />
            <Array as="points">
              <mxPoint x="1185" y="140" />
            </Array>
          </mxGeometry>
        </mxCell>
        <mxCell id="EEEpXijgqQLI1RlhWJlx-9" value="" style="edgeStyle=elbowEdgeStyle;fontSize=12;html=1;endArrow=blockThin;endFill=1;rounded=0;exitX=1;exitY=0.5;exitDx=0;exitDy=0;exitPerimeter=0;entryX=0.5;entryY=0;entryDx=0;entryDy=0;entryPerimeter=0;" edge="1" parent="BFCC4vCmTjrf80Ui5FIp-3" source="EEEpXijgqQLI1RlhWJlx-2" target="EEEpXijgqQLI1RlhWJlx-27">
          <mxGeometry width="160" relative="1" as="geometry">
            <mxPoint x="830" y="60" as="sourcePoint" />
            <mxPoint x="1180" y="70" as="targetPoint" />
            <Array as="points">
              <mxPoint x="1185" y="70" />
            </Array>
          </mxGeometry>
        </mxCell>
        <mxCell id="EEEpXijgqQLI1RlhWJlx-43" value="" style="points=[[0.25,0,0],[0.5,0,0],[0.75,0,0],[1,0.25,0],[1,0.5,0],[1,0.75,0],[0.75,1,0],[0.5,1,0],[0.25,1,0],[0,0.75,0],[0,0.5,0],[0,0.25,0]];shape=mxgraph.bpmn.task2;whiteSpace=wrap;rectStyle=rounded;size=10;html=1;container=1;expand=0;collapsible=0;taskMarker=abstract;" vertex="1" parent="BFCC4vCmTjrf80Ui5FIp-3">
          <mxGeometry x="1300" y="55" width="120" height="80" as="geometry" />
        </mxCell>
        <mxCell id="EEEpXijgqQLI1RlhWJlx-44" value="Передача товара в курьерскую службу" style="text;html=1;align=center;verticalAlign=middle;whiteSpace=wrap;rounded=0;" vertex="1" parent="EEEpXijgqQLI1RlhWJlx-43">
          <mxGeometry x="30" y="25" width="60" height="30" as="geometry" />
        </mxCell>
        <mxCell id="BFCC4vCmTjrf80Ui5FIp-4" value="" style="swimlane;html=1;startSize=20;fontStyle=0;collapsible=0;horizontal=0;swimlaneLine=1;swimlaneFillColor=#ffffff;strokeWidth=2;whiteSpace=wrap;" parent="BFCC4vCmTjrf80Ui5FIp-1" vertex="1">
          <mxGeometry x="20" y="320" width="1890" height="190" as="geometry" />
        </mxCell>
        <mxCell id="BFCC4vCmTjrf80Ui5FIp-7" value="Курьерская служба" style="text;html=1;strokeColor=none;fillColor=none;align=center;verticalAlign=middle;whiteSpace=wrap;rounded=0;rotation=-90;" parent="BFCC4vCmTjrf80Ui5FIp-4" vertex="1">
          <mxGeometry x="-60" y="80" width="140" height="30" as="geometry" />
        </mxCell>
        <mxCell id="EEEpXijgqQLI1RlhWJlx-38" value="" style="points=[[0.25,0,0],[0.5,0,0],[0.75,0,0],[1,0.25,0],[1,0.5,0],[1,0.75,0],[0.75,1,0],[0.5,1,0],[0.25,1,0],[0,0.75,0],[0,0.5,0],[0,0.25,0]];shape=mxgraph.bpmn.task2;whiteSpace=wrap;rectStyle=rounded;size=10;html=1;container=1;expand=0;collapsible=0;taskMarker=manual;" vertex="1" parent="BFCC4vCmTjrf80Ui5FIp-4">
          <mxGeometry x="1590" y="55" width="120" height="80" as="geometry" />
        </mxCell>
        <mxCell id="EEEpXijgqQLI1RlhWJlx-39" value="Передача товара заказчику" style="text;html=1;align=center;verticalAlign=middle;whiteSpace=wrap;rounded=0;" vertex="1" parent="EEEpXijgqQLI1RlhWJlx-38">
          <mxGeometry x="30" y="25" width="60" height="30" as="geometry" />
        </mxCell>
        <mxCell id="EEEpXijgqQLI1RlhWJlx-40" value="" style="edgeStyle=elbowEdgeStyle;fontSize=12;html=1;endArrow=blockThin;endFill=1;rounded=0;exitX=1;exitY=0.5;exitDx=0;exitDy=0;exitPerimeter=0;entryX=0;entryY=0.5;entryDx=0;entryDy=0;entryPerimeter=0;" edge="1" parent="BFCC4vCmTjrf80Ui5FIp-4" target="EEEpXijgqQLI1RlhWJlx-38">
          <mxGeometry width="160" relative="1" as="geometry">
            <mxPoint x="1550.0000000000005" y="95" as="sourcePoint" />
            <mxPoint x="1720" y="-10" as="targetPoint" />
          </mxGeometry>
        </mxCell>
        <mxCell id="EEEpXijgqQLI1RlhWJlx-46" value="" style="points=[[0.25,0,0],[0.5,0,0],[0.75,0,0],[1,0.25,0],[1,0.5,0],[1,0.75,0],[0.75,1,0],[0.5,1,0],[0.25,1,0],[0,0.75,0],[0,0.5,0],[0,0.25,0]];shape=mxgraph.bpmn.task2;whiteSpace=wrap;rectStyle=rounded;size=10;html=1;container=1;expand=0;collapsible=0;taskMarker=abstract;" vertex="1" parent="BFCC4vCmTjrf80Ui5FIp-4">
          <mxGeometry x="1440" y="50" width="120" height="80" as="geometry" />
        </mxCell>
        <mxCell id="EEEpXijgqQLI1RlhWJlx-47" value="Доставка товара" style="text;html=1;align=center;verticalAlign=middle;whiteSpace=wrap;rounded=0;" vertex="1" parent="EEEpXijgqQLI1RlhWJlx-46">
          <mxGeometry x="30" y="25" width="60" height="30" as="geometry" />
        </mxCell>
        <mxCell id="EEEpXijgqQLI1RlhWJlx-51" value="" style="edgeStyle=elbowEdgeStyle;fontSize=12;html=1;endArrow=blockThin;endFill=1;rounded=0;exitX=1;exitY=0.5;exitDx=0;exitDy=0;exitPerimeter=0;entryX=0;entryY=0.5;entryDx=0;entryDy=0;entryPerimeter=0;" edge="1" parent="BFCC4vCmTjrf80Ui5FIp-4" source="EEEpXijgqQLI1RlhWJlx-38" target="EEEpXijgqQLI1RlhWJlx-52">
          <mxGeometry width="160" relative="1" as="geometry">
            <mxPoint x="1685" y="150" as="sourcePoint" />
            <mxPoint x="1740" y="165" as="targetPoint" />
            <Array as="points" />
          </mxGeometry>
        </mxCell>
        <mxCell id="EEEpXijgqQLI1RlhWJlx-52" value="" style="points=[[0.25,0,0],[0.5,0,0],[0.75,0,0],[1,0.25,0],[1,0.5,0],[1,0.75,0],[0.75,1,0],[0.5,1,0],[0.25,1,0],[0,0.75,0],[0,0.5,0],[0,0.25,0]];shape=mxgraph.bpmn.task2;whiteSpace=wrap;rectStyle=rounded;size=10;html=1;container=1;expand=0;collapsible=0;taskMarker=send;" vertex="1" parent="BFCC4vCmTjrf80Ui5FIp-4">
          <mxGeometry x="1740" y="55" width="120" height="80" as="geometry" />
        </mxCell>
        <mxCell id="EEEpXijgqQLI1RlhWJlx-53" value="Отправить СМС-уведомление" style="text;html=1;align=center;verticalAlign=middle;whiteSpace=wrap;rounded=0;" vertex="1" parent="EEEpXijgqQLI1RlhWJlx-52">
          <mxGeometry x="30" y="30" width="60" height="30" as="geometry" />
        </mxCell>
        <mxCell id="BFCC4vCmTjrf80Ui5FIp-5" value="Обработка заказа в интернет-магазине" style="text;html=1;strokeColor=none;fillColor=none;align=center;verticalAlign=middle;whiteSpace=wrap;rounded=0;rotation=-90;" parent="BFCC4vCmTjrf80Ui5FIp-1" vertex="1">
          <mxGeometry x="-120" y="230" width="260" height="30" as="geometry" />
        </mxCell>
        <mxCell id="BFCC4vCmTjrf80Ui5FIp-27" value="" style="edgeStyle=elbowEdgeStyle;fontSize=12;html=1;endArrow=blockThin;endFill=1;rounded=0;exitX=1;exitY=0.5;exitDx=0;exitDy=0;exitPerimeter=0;entryX=0.5;entryY=0;entryDx=0;entryDy=0;entryPerimeter=0;" parent="BFCC4vCmTjrf80Ui5FIp-1" source="BFCC4vCmTjrf80Ui5FIp-18" target="BFCC4vCmTjrf80Ui5FIp-25" edge="1">
          <mxGeometry width="160" relative="1" as="geometry">
            <mxPoint x="320" y="30" as="sourcePoint" />
            <mxPoint x="480" y="30" as="targetPoint" />
            <Array as="points">
              <mxPoint x="490" y="80" />
            </Array>
          </mxGeometry>
        </mxCell>
        <mxCell id="BFCC4vCmTjrf80Ui5FIp-32" value="" style="edgeStyle=elbowEdgeStyle;fontSize=12;html=1;endArrow=blockThin;endFill=1;rounded=0;exitX=1;exitY=0.5;exitDx=0;exitDy=0;exitPerimeter=0;entryX=0;entryY=0.5;entryDx=0;entryDy=0;entryPerimeter=0;" parent="BFCC4vCmTjrf80Ui5FIp-1" source="BFCC4vCmTjrf80Ui5FIp-25" edge="1">
          <mxGeometry width="160" relative="1" as="geometry">
            <mxPoint x="350" y="200" as="sourcePoint" />
            <mxPoint x="580" y="65" as="targetPoint" />
          </mxGeometry>
        </mxCell>
        <mxCell id="BFCC4vCmTjrf80Ui5FIp-43" value="" style="edgeStyle=elbowEdgeStyle;fontSize=12;html=1;endArrow=blockThin;endFill=1;rounded=0;entryX=0;entryY=0.5;entryDx=0;entryDy=0;entryPerimeter=0;exitX=0.5;exitY=1;exitDx=0;exitDy=0;exitPerimeter=0;" parent="BFCC4vCmTjrf80Ui5FIp-1" source="BFCC4vCmTjrf80Ui5FIp-40" target="BFCC4vCmTjrf80Ui5FIp-42" edge="1">
          <mxGeometry width="160" relative="1" as="geometry">
            <mxPoint x="490" y="120" as="sourcePoint" />
            <mxPoint x="650" y="120" as="targetPoint" />
            <Array as="points">
              <mxPoint x="605" y="150" />
            </Array>
          </mxGeometry>
        </mxCell>
        <mxCell id="EEEpXijgqQLI1RlhWJlx-7" value="" style="edgeStyle=elbowEdgeStyle;fontSize=12;html=1;endArrow=blockThin;endFill=1;rounded=0;exitX=1;exitY=0.5;exitDx=0;exitDy=0;exitPerimeter=0;entryX=0;entryY=0.5;entryDx=0;entryDy=0;entryPerimeter=0;" edge="1" parent="BFCC4vCmTjrf80Ui5FIp-1" source="BFCC4vCmTjrf80Ui5FIp-37" target="EEEpXijgqQLI1RlhWJlx-2">
          <mxGeometry width="160" relative="1" as="geometry">
            <mxPoint x="600" y="240" as="sourcePoint" />
            <mxPoint x="760" y="240" as="targetPoint" />
            <Array as="points">
              <mxPoint x="790" y="120" />
            </Array>
          </mxGeometry>
        </mxCell>
        <mxCell id="EEEpXijgqQLI1RlhWJlx-34" value="" style="edgeStyle=elbowEdgeStyle;fontSize=12;html=1;endArrow=blockThin;endFill=1;rounded=0;exitX=1;exitY=0.5;exitDx=0;exitDy=0;exitPerimeter=0;entryX=0.5;entryY=0;entryDx=0;entryDy=0;entryPerimeter=0;" edge="1" parent="BFCC4vCmTjrf80Ui5FIp-1" target="EEEpXijgqQLI1RlhWJlx-46">
          <mxGeometry width="160" relative="1" as="geometry">
            <mxPoint x="1440.0000000000005" y="225" as="sourcePoint" />
            <mxPoint x="1510.0000000000005" y="375" as="targetPoint" />
            <Array as="points">
              <mxPoint x="1520" y="300" />
            </Array>
          </mxGeometry>
        </mxCell>
        <mxCell id="BFCC4vCmTjrf80Ui5FIp-28" value="" style="html=1;shape=mxgraph.flowchart.annotation_2;align=left;labelPosition=right;" parent="1" vertex="1">
          <mxGeometry x="650" y="10" width="50" height="100" as="geometry" />
        </mxCell>
        <mxCell id="BFCC4vCmTjrf80Ui5FIp-29" value="" style="edgeStyle=elbowEdgeStyle;fontSize=12;html=1;endFill=0;startFill=0;endSize=6;startSize=6;dashed=1;dashPattern=1 4;endArrow=none;startArrow=none;rounded=0;exitX=0.932;exitY=0.021;exitDx=0;exitDy=0;exitPerimeter=0;entryX=0;entryY=0.5;entryDx=0;entryDy=0;entryPerimeter=0;" parent="1" source="BFCC4vCmTjrf80Ui5FIp-25" target="BFCC4vCmTjrf80Ui5FIp-28" edge="1">
          <mxGeometry width="160" relative="1" as="geometry">
            <mxPoint x="500" y="210" as="sourcePoint" />
            <mxPoint x="660" y="210" as="targetPoint" />
            <Array as="points" />
          </mxGeometry>
        </mxCell>
        <mxCell id="BFCC4vCmTjrf80Ui5FIp-30" value="Если клиент VIP - 15%&lt;div&gt;Если сумма больше 5000, скидка 5%, скидки не суммируются, применяется максимальная&lt;/div&gt;" style="text;html=1;strokeColor=none;fillColor=none;align=center;verticalAlign=middle;whiteSpace=wrap;rounded=0;" parent="1" vertex="1">
          <mxGeometry x="680" y="40" width="150" height="30" as="geometry" />
        </mxCell>
        <mxCell id="BFCC4vCmTjrf80Ui5FIp-34" value="" style="html=1;shape=mxgraph.flowchart.annotation_2;align=left;labelPosition=right;" parent="1" vertex="1">
          <mxGeometry x="790" y="640" width="50" height="100" as="geometry" />
        </mxCell>
        <mxCell id="BFCC4vCmTjrf80Ui5FIp-35" value="" style="edgeStyle=elbowEdgeStyle;fontSize=12;html=1;endFill=0;startFill=0;endSize=6;startSize=6;dashed=1;dashPattern=1 4;endArrow=none;startArrow=none;rounded=0;entryX=0;entryY=0.5;entryDx=0;entryDy=0;entryPerimeter=0;exitX=0.5;exitY=1;exitDx=0;exitDy=0;exitPerimeter=0;" parent="1" target="BFCC4vCmTjrf80Ui5FIp-34" edge="1">
          <mxGeometry width="160" relative="1" as="geometry">
            <mxPoint x="730" y="225" as="sourcePoint" />
            <mxPoint x="600" y="320" as="targetPoint" />
            <Array as="points">
              <mxPoint x="730" y="250" />
            </Array>
          </mxGeometry>
        </mxCell>
        <mxCell id="BFCC4vCmTjrf80Ui5FIp-36" value="Условие выхода: оплата прошла успешно, либо было больше 3-х потыток" style="text;html=1;strokeColor=none;fillColor=none;align=center;verticalAlign=middle;whiteSpace=wrap;rounded=0;" parent="1" vertex="1">
          <mxGeometry x="820" y="670" width="130" height="30" as="geometry" />
        </mxCell>
        <mxCell id="EEEpXijgqQLI1RlhWJlx-4" value="" style="html=1;shape=mxgraph.flowchart.annotation_2;align=left;labelPosition=right;" vertex="1" parent="1">
          <mxGeometry x="1130" y="635" width="50" height="100" as="geometry" />
        </mxCell>
        <mxCell id="EEEpXijgqQLI1RlhWJlx-5" value="" style="edgeStyle=elbowEdgeStyle;fontSize=12;html=1;endFill=0;startFill=0;endSize=6;startSize=6;dashed=1;dashPattern=1 4;endArrow=none;startArrow=none;rounded=0;entryX=0;entryY=0.5;entryDx=0;entryDy=0;entryPerimeter=0;" edge="1" parent="1" target="EEEpXijgqQLI1RlhWJlx-4">
          <mxGeometry width="160" relative="1" as="geometry">
            <mxPoint x="960" y="355" as="sourcePoint" />
            <mxPoint x="850" y="360" as="targetPoint" />
            <Array as="points">
              <mxPoint x="1080" y="450" />
            </Array>
          </mxGeometry>
        </mxCell>
        <mxCell id="EEEpXijgqQLI1RlhWJlx-6" value="Для каждого товара из доставки" style="text;html=1;strokeColor=none;fillColor=none;align=center;verticalAlign=middle;whiteSpace=wrap;rounded=0;" vertex="1" parent="1">
          <mxGeometry x="1170" y="670" width="80" height="30" as="geometry" />
        </mxCell>
        <mxCell id="EEEpXijgqQLI1RlhWJlx-23" value="" style="edgeStyle=elbowEdgeStyle;fontSize=12;html=1;endArrow=blockThin;endFill=1;rounded=0;exitX=0.5;exitY=1;exitDx=0;exitDy=0;exitPerimeter=0;" edge="1" parent="1" source="EEEpXijgqQLI1RlhWJlx-18">
          <mxGeometry width="160" relative="1" as="geometry">
            <mxPoint x="930" y="400" as="sourcePoint" />
            <mxPoint x="1180" y="400" as="targetPoint" />
            <Array as="points">
              <mxPoint x="925" y="390" />
            </Array>
          </mxGeometry>
        </mxCell>
        <mxCell id="EEEpXijgqQLI1RlhWJlx-30" value="" style="edgeStyle=elbowEdgeStyle;fontSize=12;html=1;endArrow=blockThin;endFill=1;rounded=0;exitX=1;exitY=0.5;exitDx=0;exitDy=0;exitPerimeter=0;" edge="1" parent="1" source="EEEpXijgqQLI1RlhWJlx-27">
          <mxGeometry width="160" relative="1" as="geometry">
            <mxPoint x="1010" y="170" as="sourcePoint" />
            <mxPoint x="1410" y="345" as="targetPoint" />
          </mxGeometry>
        </mxCell>
      </root>
    </mxGraphModel>
  </diagram>
</mxfile>
